<?xml version="1.0" encoding="UTF-8" standalone="no"?>
<!-- Created with Inkscape (http://www.inkscape.org/) -->

<svg
   width="273.98837mm"
   height="197.47089mm"
   viewBox="0 0 273.98837 197.47089"
   version="1.1"
   id="svg2432"
   inkscape:version="1.1 (c68e22c387, 2021-05-23)"
   sodipodi:docname="mar1.svg"
   xmlns:inkscape="http://www.inkscape.org/namespaces/inkscape"
   xmlns:sodipodi="http://sodipodi.sourceforge.net/DTD/sodipodi-0.dtd"
   xmlns="http://www.w3.org/2000/svg"
   xmlns:svg="http://www.w3.org/2000/svg">
  <sodipodi:namedview
     id="namedview2434"
     pagecolor="#ffffff"
     bordercolor="#666666"
     borderopacity="1.0"
     inkscape:pageshadow="2"
     inkscape:pageopacity="0.0"
     inkscape:pagecheckerboard="0"
     inkscape:document-units="mm"
     showgrid="false"
     inkscape:zoom="0.77771465"
     inkscape:cx="317.59721"
     inkscape:cy="412.10488"
     inkscape:window-width="1297"
     inkscape:window-height="1081"
     inkscape:window-x="104"
     inkscape:window-y="104"
     inkscape:window-maximized="0"
     inkscape:current-layer="layer1" />
  <defs
     id="defs2429" />
  <g
     inkscape:label="Layer 1"
     inkscape:groupmode="layer"
     id="layer1"
     transform="translate(41.056058,-39.388271)">
    <g
       id="g2475">
      <path
         d="m 83.996605,156.37644 c -4.296833,0 -7.778749,-3.48192 -7.778749,-7.77875 0,-4.29331 3.481916,-7.77523 7.778749,-7.77523 4.293306,0 7.77875,3.48192 7.77875,7.77523 0,4.29683 -3.485444,7.77875 -7.77875,7.77875 z m -33.446863,25.84802 c -2.81869,0 -5.10469,-2.286 -5.10469,-5.10469 0,-2.8187 2.286,-5.1047 5.10469,-5.1047 2.8187,0 5.1047,2.286 5.1047,5.1047 0,2.81869 -2.286,5.10469 -5.1047,5.10469 z M 232.7383,95.68102 c -0.0318,-1.326445 -0.11995,-2.631723 -0.20109,-3.944056 -1.17475,-0.941917 -2.23661,-1.912055 -3.59127,-2.779889 -8.5725,-5.485694 -23.08931,-10.865555 -43.4587,-5.42925 -19.42394,5.196417 -26.44775,18.132775 -32.09572,28.529135 -3.24908,5.97253 -6.04308,11.13367 -10.541,14.37217 -2.06375,1.49225 -3.98639,2.51531 -5.71853,3.20322 1.97556,-3.29141 2.78695,-7.39775 0.86784,-12.17789 -2.3495,-5.88433 -7.53534,-10.31522 -14.22047,-12.15319 -9.25337,-2.54706 -25.862144,-1.35467 -52.408671,18.90183 -21.445357,16.33361 -56.811327,23.35742 -88.070967,17.45192 -7.21078,-1.36878 -13.89592,-3.42547 -20.10128,-5.98664 0.73731,2.68817 1.52047,5.34811 2.40594,7.96572 0.23284,0.68792 0.51153,1.36878 0.75142,2.0567 8.11036,22.68714 21.94278,42.61202 39.8638905,57.99666 7.7469995,-0.20461 15.5081095,-0.89958 23.1739695,-2.20486 24.01711,-4.2545 47.392166,-12.192 68.142554,-24.38753 10.565694,-5.92313 19.208754,-13.37733 31.129114,-20.96911 11.33475,-7.18608 23.60789,-13.1833 36.7418,-17.42722 13.05278,-4.27919 27.01572,-7.22136 41.49372,-6.30414 6.83684,0.381 14.05114,1.85561 20.69395,4.699 3.06211,-10.77383 4.82247,-22.08036 5.1435,-33.76436 0.0423,-1.27705 0.19402,-2.53294 0.19402,-3.820582 0,-1.291166 -0.15169,-2.547055 -0.19402,-3.827638"
         style="fill:#0075b2;fill-opacity:1;fill-rule:nonzero;stroke:none;stroke-width:0.0352778"
         id="path248" />
      <path
         d="m 230.25827,72.59877 c -0.37042,-1.887361 -0.89606,-3.718278 -1.35114,-5.573889 -40.01205,-21.949833 -99.49039,3.231445 -119.3165,12.865806 -0.33866,-5.372806 -2.25072,-12.396611 -8.93586,-17.571861 -9.221609,-7.133167 -20.993803,-5.520972 -28.578525,-0.754945 -6.723945,4.22275 -10.085917,10.622139 -8.798278,16.7005 0.306917,1.439333 1.361722,2.607028 2.755194,3.069167 1.418167,0.486833 2.949223,0.151694 4.049889,-0.8255 3.510139,-3.086806 6.085417,-0.998361 7.034389,0.0388 3.044472,3.347861 4.099278,12.234333 -6.078361,21.819302 -18.877136,17.76942 -55.985836,26.02795 -88.300276,19.60739 -9.15458,-1.81328 -17.10267,-4.699 -23.79486,-8.39964 0.17639,1.73214 0.54328,3.41136 0.78669,5.11881 0.22578,1.63689 0.45156,3.26672 0.73731,4.87892 6.18067,2.77988 13.03514,5.03061 20.65867,6.54755 8.0398,1.59456 16.2948005,2.36361 24.4933605,2.36361 27.7530195,0 54.8781055,-8.80533 71.1058835,-24.07003 13.080999,-12.315468 13.176249,-26.15494 6.515805,-33.457439 -2.617611,-2.868084 -5.912555,-4.342695 -9.299222,-4.3815 0.719667,-0.705556 1.576917,-1.368778 2.543528,-1.986139 5.136444,-3.217333 13.021027,-4.392083 19.088805,0.292805 7.842248,6.074834 5.492748,16.601722 5.393968,17.028583 -0.38805,1.598084 0.19403,3.273778 1.49931,4.272139 1.32292,0.994833 3.08681,1.135945 4.52261,0.34925 0.81139,-0.462139 81.62925,-44.086638 124.13544,-12.234333 -0.2928,-1.897944 -0.49389,-3.824111 -0.86783,-5.697361"
         style="fill:#0075b2;fill-opacity:1;fill-rule:nonzero;stroke:none;stroke-width:0.0352778"
         id="path250" />
      <path
         d="m 27.213492,89.937797 c -1.86266,0 -3.38666,-1.523999 -3.38666,-3.386666 0,-1.855611 1.524,-3.372556 3.38666,-3.372556 1.85561,0 3.37256,1.516945 3.37256,3.372556 0,1.862667 -1.51695,3.386666 -3.37256,3.386666 z m 0,-15.053027 c -6.44172,0 -11.684,5.231694 -11.684,11.666361 0,6.441722 5.24228,11.684 11.684,11.684 6.43467,0 11.66989,-5.242278 11.66989,-11.684 0,-6.434667 -5.23522,-11.666361 -11.66989,-11.666361"
         style="fill:#0075b2;fill-opacity:1;fill-rule:nonzero;stroke:none;stroke-width:0.0352778"
         id="path252" />
      <path
         d="m 46.570412,52.603326 c -1.36172,0 -2.46944,-1.104194 -2.46944,-2.465917 0,-1.351138 1.10772,-2.451805 2.46944,-2.451805 1.35467,0 2.45533,1.100667 2.45533,2.451805 0,1.361723 -1.10066,2.465917 -2.45533,2.465917 z m 0,-13.215055 c -5.93725,0 -10.76678,4.818944 -10.76678,10.749138 0,5.933723 4.82953,10.76325 10.76678,10.76325 5.93019,0 10.75267,-4.829527 10.75267,-10.76325 0,-5.930194 -4.82248,-10.749138 -10.75267,-10.749138"
         style="fill:#0075b2;fill-opacity:1;fill-rule:nonzero;stroke:none;stroke-width:0.0352778"
         id="path254" />
      <path
         d="m 178.45285,176.72113 c -1.93675,0 -3.50661,1.57339 -3.50661,3.51014 0,0.81139 0.32456,1.53105 0.78317,2.12372 0.64206,0.8255 1.59808,1.38289 2.72344,1.38289 1.93675,0 3.51014,-1.56986 3.51014,-3.50661 0,-0.0988 -0.0494,-0.17992 -0.0564,-0.27517 -0.14816,-1.79917 -1.61572,-3.23497 -3.45369,-3.23497 z m -122.798408,0.39864 c 0,-2.8187 -2.286,-5.1047 -5.1047,-5.1047 -2.81869,0 -5.10469,2.286 -5.10469,5.1047 0,2.81869 2.286,5.10469 5.10469,5.10469 2.8187,0 5.1047,-2.286 5.1047,-5.10469 z m 36.120913,-28.52208 c 0,-4.29331 -3.485444,-7.77523 -7.77875,-7.77523 -4.296833,0 -7.778749,3.48192 -7.778749,7.77523 0,4.29683 3.481916,7.77875 7.778749,7.77875 4.293306,0 7.77875,-3.48192 7.77875,-7.77875 z M 46.570412,52.603326 c 1.35467,0 2.45533,-1.104194 2.45533,-2.465917 0,-1.351138 -1.10066,-2.451805 -2.45533,-2.451805 -1.36172,0 -2.46944,1.100667 -2.46944,2.451805 0,1.361723 1.10772,2.465917 2.46944,2.465917 z m -19.35692,37.334471 c 1.85561,0 3.37256,-1.523999 3.37256,-3.386666 0,-1.855611 -1.51695,-3.372556 -3.37256,-3.372556 -1.86266,0 -3.38666,1.516945 -3.38666,3.372556 0,1.862667 1.524,3.386666 3.38666,3.386666 z M 165.40713,138.69874 c -13.13391,4.24392 -25.40705,10.24114 -36.7418,17.42722 -11.92036,7.59178 -20.56342,15.04598 -31.129114,20.96911 -20.750388,12.19553 -44.125444,20.13303 -68.142554,24.38753 -7.66586,1.30528 -15.42697,2.00025 -23.1739695,2.20486 2.90336,2.48709 5.9160795,4.81189 9.0099395,7.05556 4.2792,3.09739 8.70303,5.99722 13.32089,8.59014 0.94897,-0.0388 1.89795,-0.0494 2.84339,-0.10584 19.15583,-1.12536 38.043555,-5.37986 56.144582,-12.07911 7.224889,-2.667 14.329836,-5.6903 21.265446,-9.11578 6.07836,-3.01625 12.0015,-6.37822 17.77647,-9.99066 5.64797,-3.5807 10.72092,-7.23547 15.73742,-10.26584 10.32227,-6.39233 20.65161,-12.59769 31.40427,-17.55774 10.74209,-4.84717 21.98864,-8.46667 33.15406,-9.3592 5.29872,-0.40569 10.67153,-0.20108 15.72683,0.86078 1.94381,-4.74133 3.57364,-9.64142 4.99181,-14.62617 -6.64281,-2.84339 -13.85711,-4.318 -20.69395,-4.699 -14.478,-0.91722 -28.44094,2.02495 -41.49372,6.30414 z M 231.1261,78.296131 C 188.61991,46.443826 107.80205,90.068325 106.99066,90.530464 c -1.4358,0.786695 -3.19969,0.645583 -4.52261,-0.34925 -1.30528,-0.998361 -1.88736,-2.674055 -1.49931,-4.272139 0.0988,-0.426861 2.44828,-10.953749 -5.393968,-17.028583 -6.067778,-4.684888 -13.952361,-3.510138 -19.088805,-0.292805 -0.966611,0.617361 -1.823861,1.280583 -2.543528,1.986139 3.386667,0.03881 6.681611,1.513416 9.299222,4.3815 6.660444,7.302499 6.565194,21.141971 -6.515805,33.457444 -16.227778,15.26469 -43.352864,24.07003 -71.1058835,24.07003 -8.19856,0 -16.4535605,-0.76906 -24.4933605,-2.36361 -7.62353,-1.51695 -14.478,-3.76767 -20.65867,-6.54756 0.72672,4.09928 1.651,8.128 2.7305,12.09675 6.20536,2.56117 12.8905,4.61786 20.10128,5.98664 31.25964,5.9055 66.62561,-1.11831 88.070967,-17.45192 26.546527,-20.2565 43.155301,-21.44889 52.408671,-18.90183 6.68513,1.83797 11.87097,6.26886 14.22047,12.15319 1.91911,4.78014 1.10772,8.88648 -0.86784,12.17789 1.73214,-0.68791 3.65478,-1.71097 5.71853,-3.20322 4.49792,-3.2385 7.29192,-8.39964 10.541,-14.37217 5.64797,-10.39636 12.67178,-23.332718 32.09572,-28.529135 20.36939,-5.436305 34.8862,-0.05644 43.4587,5.42925 1.35466,0.867834 2.41652,1.837972 3.59127,2.779889 -0.25047,-4.547305 -0.71966,-9.027583 -1.41111,-13.440833"
         style="fill:#ffffff;fill-opacity:1;fill-rule:nonzero;stroke:none;stroke-width:0.0352778"
         id="path256" />
      <path
         d="m 181.96299,180.23127 c 0,1.93675 -1.57339,3.50661 -3.51014,3.50661 -1.12536,0 -2.08138,-0.55739 -2.72344,-1.38289 -0.45861,-0.59267 -0.78317,-1.31233 -0.78317,-2.12372 0,-1.93675 1.56986,-3.51014 3.50661,-3.51014 1.83798,0 3.30553,1.4358 3.4537,3.23497 0.007,0.0953 0.0564,0.17639 0.0564,0.27517 z m 24.91317,-29.37228 c -11.16542,0.89253 -22.41197,4.51203 -33.15406,9.3592 -10.75266,4.96005 -21.082,11.16541 -31.40427,17.55774 -5.0165,3.03037 -10.08945,6.68514 -15.73742,10.26584 -5.77497,3.61244 -11.69811,6.97441 -17.77647,9.99066 -6.93561,3.42548 -14.040557,6.44878 -21.265446,9.11578 -18.101027,6.69925 -36.988752,10.95375 -56.144582,12.07911 -0.94544,0.0565 -1.89442,0.067 -2.84339,0.10584 19.84375,11.12308 42.675528,17.52599 67.031305,17.52599 52.609753,0 98.259193,-29.60863 121.334383,-73.04263 2.08139,-3.92289 3.97934,-7.95867 5.68678,-12.09675 -5.0553,-1.06186 -10.42811,-1.26647 -15.72683,-0.86078"
         style="fill:#00bbd6;fill-opacity:1;fill-rule:nonzero;stroke:none;stroke-width:0.0352778"
         id="path258" />
    </g>
  </g>
</svg>
